<mxfile host="app.diagrams.net" agent="Mozilla/5.0 (Windows NT 10.0; Win64; x64) AppleWebKit/537.36 (KHTML, like Gecko) Chrome/129.0.0.0 Safari/537.36" version="24.7.17">
  <diagram name="Página-1" id="M4jwLt3chlfe-bUJPSQx">
    <mxGraphModel grid="1" page="1" gridSize="10" guides="1" tooltips="1" connect="1" arrows="1" fold="1" pageScale="1" pageWidth="827" pageHeight="1169" math="0" shadow="0">
      <root>
        <mxCell id="0" />
        <mxCell id="1" parent="0" />
        <mxCell id="kD788OwM7WemHHMl1Btq-38" style="edgeStyle=none;shape=connector;rounded=0;orthogonalLoop=1;jettySize=auto;html=1;entryX=0.5;entryY=0;entryDx=0;entryDy=0;strokeColor=default;align=center;verticalAlign=middle;fontFamily=Helvetica;fontSize=11;fontColor=default;labelBackgroundColor=default;endArrow=none;endFill=0;" edge="1" parent="1" source="kD788OwM7WemHHMl1Btq-1" target="kD788OwM7WemHHMl1Btq-13">
          <mxGeometry relative="1" as="geometry" />
        </mxCell>
        <mxCell id="kD788OwM7WemHHMl1Btq-39" style="edgeStyle=none;shape=connector;rounded=0;orthogonalLoop=1;jettySize=auto;html=1;entryX=0;entryY=0.5;entryDx=0;entryDy=0;strokeColor=default;align=center;verticalAlign=middle;fontFamily=Helvetica;fontSize=11;fontColor=default;labelBackgroundColor=default;endArrow=none;endFill=0;" edge="1" parent="1" source="kD788OwM7WemHHMl1Btq-1" target="kD788OwM7WemHHMl1Btq-20">
          <mxGeometry relative="1" as="geometry" />
        </mxCell>
        <mxCell id="kD788OwM7WemHHMl1Btq-1" value="usuario" style="whiteSpace=wrap;html=1;align=center;" vertex="1" parent="1">
          <mxGeometry x="360" y="160" width="100" height="40" as="geometry" />
        </mxCell>
        <mxCell id="kD788OwM7WemHHMl1Btq-7" style="rounded=0;orthogonalLoop=1;jettySize=auto;html=1;entryX=0;entryY=0;entryDx=0;entryDy=0;endArrow=none;endFill=0;" edge="1" parent="1" source="kD788OwM7WemHHMl1Btq-2" target="kD788OwM7WemHHMl1Btq-1">
          <mxGeometry relative="1" as="geometry" />
        </mxCell>
        <mxCell id="kD788OwM7WemHHMl1Btq-2" value="apodo" style="ellipse;whiteSpace=wrap;html=1;align=center;" vertex="1" parent="1">
          <mxGeometry x="180" y="70" width="100" height="40" as="geometry" />
        </mxCell>
        <mxCell id="kD788OwM7WemHHMl1Btq-8" style="edgeStyle=none;shape=connector;rounded=0;orthogonalLoop=1;jettySize=auto;html=1;entryX=0.25;entryY=0;entryDx=0;entryDy=0;strokeColor=default;align=center;verticalAlign=middle;fontFamily=Helvetica;fontSize=11;fontColor=default;labelBackgroundColor=default;endArrow=none;endFill=0;" edge="1" parent="1" source="kD788OwM7WemHHMl1Btq-3" target="kD788OwM7WemHHMl1Btq-1">
          <mxGeometry relative="1" as="geometry" />
        </mxCell>
        <mxCell id="kD788OwM7WemHHMl1Btq-3" value="nombre" style="ellipse;whiteSpace=wrap;html=1;align=center;" vertex="1" parent="1">
          <mxGeometry x="260" y="50" width="100" height="40" as="geometry" />
        </mxCell>
        <mxCell id="kD788OwM7WemHHMl1Btq-9" style="edgeStyle=none;shape=connector;rounded=0;orthogonalLoop=1;jettySize=auto;html=1;entryX=0.5;entryY=0;entryDx=0;entryDy=0;strokeColor=default;align=center;verticalAlign=middle;fontFamily=Helvetica;fontSize=11;fontColor=default;labelBackgroundColor=default;endArrow=none;endFill=0;" edge="1" parent="1" source="kD788OwM7WemHHMl1Btq-4" target="kD788OwM7WemHHMl1Btq-1">
          <mxGeometry relative="1" as="geometry" />
        </mxCell>
        <mxCell id="kD788OwM7WemHHMl1Btq-4" value="gmail" style="ellipse;whiteSpace=wrap;html=1;align=center;" vertex="1" parent="1">
          <mxGeometry x="360" y="50" width="100" height="40" as="geometry" />
        </mxCell>
        <mxCell id="kD788OwM7WemHHMl1Btq-10" style="edgeStyle=none;shape=connector;rounded=0;orthogonalLoop=1;jettySize=auto;html=1;entryX=0.75;entryY=0;entryDx=0;entryDy=0;strokeColor=default;align=center;verticalAlign=middle;fontFamily=Helvetica;fontSize=11;fontColor=default;labelBackgroundColor=default;endArrow=none;endFill=0;" edge="1" parent="1" source="kD788OwM7WemHHMl1Btq-5" target="kD788OwM7WemHHMl1Btq-1">
          <mxGeometry relative="1" as="geometry" />
        </mxCell>
        <mxCell id="kD788OwM7WemHHMl1Btq-5" value="género favorito" style="ellipse;whiteSpace=wrap;html=1;align=center;" vertex="1" parent="1">
          <mxGeometry x="460" y="50" width="100" height="40" as="geometry" />
        </mxCell>
        <mxCell id="kD788OwM7WemHHMl1Btq-11" style="edgeStyle=none;shape=connector;rounded=0;orthogonalLoop=1;jettySize=auto;html=1;entryX=1;entryY=0;entryDx=0;entryDy=0;strokeColor=default;align=center;verticalAlign=middle;fontFamily=Helvetica;fontSize=11;fontColor=default;labelBackgroundColor=default;endArrow=none;endFill=0;" edge="1" parent="1" source="kD788OwM7WemHHMl1Btq-6" target="kD788OwM7WemHHMl1Btq-1">
          <mxGeometry relative="1" as="geometry" />
        </mxCell>
        <mxCell id="kD788OwM7WemHHMl1Btq-6" value="fecha nacimiento" style="ellipse;whiteSpace=wrap;html=1;align=center;" vertex="1" parent="1">
          <mxGeometry x="540" y="70" width="100" height="40" as="geometry" />
        </mxCell>
        <mxCell id="kD788OwM7WemHHMl1Btq-41" style="edgeStyle=none;shape=connector;rounded=0;orthogonalLoop=1;jettySize=auto;html=1;entryX=0;entryY=0.5;entryDx=0;entryDy=0;strokeColor=default;align=center;verticalAlign=middle;fontFamily=Helvetica;fontSize=11;fontColor=default;labelBackgroundColor=default;endArrow=none;endFill=0;" edge="1" parent="1" source="kD788OwM7WemHHMl1Btq-13" target="kD788OwM7WemHHMl1Btq-14">
          <mxGeometry relative="1" as="geometry" />
        </mxCell>
        <mxCell id="kD788OwM7WemHHMl1Btq-13" value="crea" style="shape=rhombus;perimeter=rhombusPerimeter;whiteSpace=wrap;html=1;align=center;fontFamily=Helvetica;fontSize=11;fontColor=default;labelBackgroundColor=default;" vertex="1" parent="1">
          <mxGeometry x="350" y="370" width="120" height="60" as="geometry" />
        </mxCell>
        <mxCell id="kD788OwM7WemHHMl1Btq-42" style="edgeStyle=none;shape=connector;rounded=0;orthogonalLoop=1;jettySize=auto;html=1;entryX=1;entryY=0;entryDx=0;entryDy=0;strokeColor=default;align=center;verticalAlign=middle;fontFamily=Helvetica;fontSize=11;fontColor=default;labelBackgroundColor=default;endArrow=none;endFill=0;" edge="1" parent="1" source="kD788OwM7WemHHMl1Btq-14" target="kD788OwM7WemHHMl1Btq-22">
          <mxGeometry relative="1" as="geometry" />
        </mxCell>
        <mxCell id="kD788OwM7WemHHMl1Btq-55" style="edgeStyle=none;shape=connector;rounded=0;orthogonalLoop=1;jettySize=auto;html=1;entryX=0;entryY=0.5;entryDx=0;entryDy=0;strokeColor=default;align=center;verticalAlign=middle;fontFamily=Helvetica;fontSize=11;fontColor=default;labelBackgroundColor=default;endArrow=none;endFill=0;" edge="1" parent="1" source="kD788OwM7WemHHMl1Btq-14" target="kD788OwM7WemHHMl1Btq-18">
          <mxGeometry relative="1" as="geometry" />
        </mxCell>
        <mxCell id="kD788OwM7WemHHMl1Btq-57" style="edgeStyle=none;shape=connector;rounded=0;orthogonalLoop=1;jettySize=auto;html=1;entryX=0;entryY=0.5;entryDx=0;entryDy=0;strokeColor=default;align=center;verticalAlign=middle;fontFamily=Helvetica;fontSize=11;fontColor=default;labelBackgroundColor=default;endArrow=none;endFill=0;" edge="1" parent="1" source="kD788OwM7WemHHMl1Btq-14" target="kD788OwM7WemHHMl1Btq-24">
          <mxGeometry relative="1" as="geometry" />
        </mxCell>
        <mxCell id="kD788OwM7WemHHMl1Btq-14" value="publicación" style="whiteSpace=wrap;html=1;align=center;fontFamily=Helvetica;fontSize=11;fontColor=default;labelBackgroundColor=default;" vertex="1" parent="1">
          <mxGeometry x="560" y="380" width="100" height="40" as="geometry" />
        </mxCell>
        <mxCell id="kD788OwM7WemHHMl1Btq-60" style="edgeStyle=none;shape=connector;rounded=0;orthogonalLoop=1;jettySize=auto;html=1;entryX=0;entryY=0;entryDx=0;entryDy=0;strokeColor=default;align=center;verticalAlign=middle;fontFamily=Helvetica;fontSize=11;fontColor=default;labelBackgroundColor=default;endArrow=none;endFill=0;" edge="1" parent="1" source="kD788OwM7WemHHMl1Btq-15" target="kD788OwM7WemHHMl1Btq-14">
          <mxGeometry relative="1" as="geometry" />
        </mxCell>
        <mxCell id="kD788OwM7WemHHMl1Btq-15" value="contenido" style="ellipse;whiteSpace=wrap;html=1;align=center;fontFamily=Helvetica;fontSize=11;fontColor=default;labelBackgroundColor=default;" vertex="1" parent="1">
          <mxGeometry x="460" y="310" width="100" height="40" as="geometry" />
        </mxCell>
        <mxCell id="kD788OwM7WemHHMl1Btq-61" style="edgeStyle=none;shape=connector;rounded=0;orthogonalLoop=1;jettySize=auto;html=1;entryX=0.5;entryY=0;entryDx=0;entryDy=0;strokeColor=default;align=center;verticalAlign=middle;fontFamily=Helvetica;fontSize=11;fontColor=default;labelBackgroundColor=default;endArrow=none;endFill=0;" edge="1" parent="1" source="kD788OwM7WemHHMl1Btq-16" target="kD788OwM7WemHHMl1Btq-14">
          <mxGeometry relative="1" as="geometry" />
        </mxCell>
        <mxCell id="kD788OwM7WemHHMl1Btq-16" value="fecha publicación" style="ellipse;whiteSpace=wrap;html=1;align=center;fontFamily=Helvetica;fontSize=11;fontColor=default;labelBackgroundColor=default;" vertex="1" parent="1">
          <mxGeometry x="560" y="310" width="100" height="40" as="geometry" />
        </mxCell>
        <mxCell id="kD788OwM7WemHHMl1Btq-62" style="edgeStyle=none;shape=connector;rounded=0;orthogonalLoop=1;jettySize=auto;html=1;entryX=1;entryY=0;entryDx=0;entryDy=0;strokeColor=default;align=center;verticalAlign=middle;fontFamily=Helvetica;fontSize=11;fontColor=default;labelBackgroundColor=default;endArrow=none;endFill=0;" edge="1" parent="1" source="kD788OwM7WemHHMl1Btq-17" target="kD788OwM7WemHHMl1Btq-14">
          <mxGeometry relative="1" as="geometry" />
        </mxCell>
        <mxCell id="kD788OwM7WemHHMl1Btq-17" value="título" style="ellipse;whiteSpace=wrap;html=1;align=center;fontFamily=Helvetica;fontSize=11;fontColor=default;labelBackgroundColor=default;" vertex="1" parent="1">
          <mxGeometry x="660" y="310" width="100" height="40" as="geometry" />
        </mxCell>
        <mxCell id="kD788OwM7WemHHMl1Btq-56" style="edgeStyle=none;shape=connector;rounded=0;orthogonalLoop=1;jettySize=auto;html=1;entryX=0;entryY=0.5;entryDx=0;entryDy=0;strokeColor=default;align=center;verticalAlign=middle;fontFamily=Helvetica;fontSize=11;fontColor=default;labelBackgroundColor=default;endArrow=none;endFill=0;" edge="1" parent="1" source="kD788OwM7WemHHMl1Btq-18" target="kD788OwM7WemHHMl1Btq-21">
          <mxGeometry relative="1" as="geometry" />
        </mxCell>
        <mxCell id="kD788OwM7WemHHMl1Btq-18" value="recibe" style="shape=rhombus;perimeter=rhombusPerimeter;whiteSpace=wrap;html=1;align=center;fontFamily=Helvetica;fontSize=11;fontColor=default;labelBackgroundColor=default;" vertex="1" parent="1">
          <mxGeometry x="790" y="370" width="120" height="60" as="geometry" />
        </mxCell>
        <mxCell id="kD788OwM7WemHHMl1Btq-40" style="edgeStyle=none;shape=connector;rounded=0;orthogonalLoop=1;jettySize=auto;html=1;entryX=1;entryY=0.5;entryDx=0;entryDy=0;strokeColor=default;align=center;verticalAlign=middle;fontFamily=Helvetica;fontSize=11;fontColor=default;labelBackgroundColor=default;endArrow=none;endFill=0;" edge="1" parent="1" source="kD788OwM7WemHHMl1Btq-20" target="kD788OwM7WemHHMl1Btq-14">
          <mxGeometry relative="1" as="geometry" />
        </mxCell>
        <mxCell id="kD788OwM7WemHHMl1Btq-20" value="comentan" style="shape=rhombus;perimeter=rhombusPerimeter;whiteSpace=wrap;html=1;align=center;fontFamily=Helvetica;fontSize=11;fontColor=default;labelBackgroundColor=default;" vertex="1" parent="1">
          <mxGeometry x="830" y="250" width="120" height="60" as="geometry" />
        </mxCell>
        <mxCell id="kD788OwM7WemHHMl1Btq-21" value="me gusta" style="whiteSpace=wrap;html=1;align=center;fontFamily=Helvetica;fontSize=11;fontColor=default;labelBackgroundColor=default;" vertex="1" parent="1">
          <mxGeometry x="950" y="380" width="100" height="40" as="geometry" />
        </mxCell>
        <mxCell id="kD788OwM7WemHHMl1Btq-43" style="edgeStyle=none;shape=connector;rounded=0;orthogonalLoop=1;jettySize=auto;html=1;entryX=1;entryY=0.5;entryDx=0;entryDy=0;strokeColor=default;align=center;verticalAlign=middle;fontFamily=Helvetica;fontSize=11;fontColor=default;labelBackgroundColor=default;endArrow=none;endFill=0;" edge="1" parent="1" source="kD788OwM7WemHHMl1Btq-22" target="kD788OwM7WemHHMl1Btq-23">
          <mxGeometry relative="1" as="geometry" />
        </mxCell>
        <mxCell id="kD788OwM7WemHHMl1Btq-22" value="acerca de" style="shape=rhombus;perimeter=rhombusPerimeter;whiteSpace=wrap;html=1;align=center;fontFamily=Helvetica;fontSize=11;fontColor=default;labelBackgroundColor=default;" vertex="1" parent="1">
          <mxGeometry x="470" y="440" width="120" height="60" as="geometry" />
        </mxCell>
        <mxCell id="kD788OwM7WemHHMl1Btq-44" style="edgeStyle=none;shape=connector;rounded=0;orthogonalLoop=1;jettySize=auto;html=1;entryX=0;entryY=0.5;entryDx=0;entryDy=0;strokeColor=default;align=center;verticalAlign=middle;fontFamily=Helvetica;fontSize=11;fontColor=default;labelBackgroundColor=default;endArrow=none;endFill=0;" edge="1" parent="1" source="kD788OwM7WemHHMl1Btq-23" target="kD788OwM7WemHHMl1Btq-25">
          <mxGeometry relative="1" as="geometry" />
        </mxCell>
        <mxCell id="kD788OwM7WemHHMl1Btq-23" value="manga/anime" style="whiteSpace=wrap;html=1;align=center;fontFamily=Helvetica;fontSize=11;fontColor=default;labelBackgroundColor=default;" vertex="1" parent="1">
          <mxGeometry x="314" y="450" width="100" height="40" as="geometry" />
        </mxCell>
        <mxCell id="kD788OwM7WemHHMl1Btq-24" value="" style="triangle;whiteSpace=wrap;html=1;fontFamily=Helvetica;fontSize=11;fontColor=default;labelBackgroundColor=default;direction=south;" vertex="1" parent="1">
          <mxGeometry x="890" y="470" width="80" height="60" as="geometry" />
        </mxCell>
        <mxCell id="kD788OwM7WemHHMl1Btq-25" value="" style="triangle;whiteSpace=wrap;html=1;fontFamily=Helvetica;fontSize=11;fontColor=default;labelBackgroundColor=default;direction=south;" vertex="1" parent="1">
          <mxGeometry x="414" y="530" width="80" height="60" as="geometry" />
        </mxCell>
        <mxCell id="kD788OwM7WemHHMl1Btq-58" style="edgeStyle=none;shape=connector;rounded=0;orthogonalLoop=1;jettySize=auto;html=1;entryX=0.5;entryY=1;entryDx=0;entryDy=0;strokeColor=default;align=center;verticalAlign=middle;fontFamily=Helvetica;fontSize=11;fontColor=default;labelBackgroundColor=default;endArrow=none;endFill=0;" edge="1" parent="1" source="kD788OwM7WemHHMl1Btq-26" target="kD788OwM7WemHHMl1Btq-24">
          <mxGeometry relative="1" as="geometry" />
        </mxCell>
        <mxCell id="kD788OwM7WemHHMl1Btq-26" value="público" style="whiteSpace=wrap;html=1;align=center;fontFamily=Helvetica;fontSize=11;fontColor=default;labelBackgroundColor=default;" vertex="1" parent="1">
          <mxGeometry x="790" y="565" width="100" height="40" as="geometry" />
        </mxCell>
        <mxCell id="kD788OwM7WemHHMl1Btq-59" style="edgeStyle=none;shape=connector;rounded=0;orthogonalLoop=1;jettySize=auto;html=1;entryX=0.5;entryY=0;entryDx=0;entryDy=0;strokeColor=default;align=center;verticalAlign=middle;fontFamily=Helvetica;fontSize=11;fontColor=default;labelBackgroundColor=default;endArrow=none;endFill=0;" edge="1" parent="1" source="kD788OwM7WemHHMl1Btq-27" target="kD788OwM7WemHHMl1Btq-24">
          <mxGeometry relative="1" as="geometry" />
        </mxCell>
        <mxCell id="kD788OwM7WemHHMl1Btq-27" value="privado" style="whiteSpace=wrap;html=1;align=center;fontFamily=Helvetica;fontSize=11;fontColor=default;labelBackgroundColor=default;" vertex="1" parent="1">
          <mxGeometry x="970" y="565" width="100" height="40" as="geometry" />
        </mxCell>
        <mxCell id="kD788OwM7WemHHMl1Btq-45" style="edgeStyle=none;shape=connector;rounded=0;orthogonalLoop=1;jettySize=auto;html=1;entryX=0.5;entryY=1;entryDx=0;entryDy=0;strokeColor=default;align=center;verticalAlign=middle;fontFamily=Helvetica;fontSize=11;fontColor=default;labelBackgroundColor=default;endArrow=none;endFill=0;" edge="1" parent="1" source="kD788OwM7WemHHMl1Btq-28" target="kD788OwM7WemHHMl1Btq-25">
          <mxGeometry relative="1" as="geometry" />
        </mxCell>
        <mxCell id="kD788OwM7WemHHMl1Btq-28" value="animes" style="whiteSpace=wrap;html=1;align=center;fontFamily=Helvetica;fontSize=11;fontColor=default;labelBackgroundColor=default;" vertex="1" parent="1">
          <mxGeometry x="330" y="610" width="100" height="40" as="geometry" />
        </mxCell>
        <mxCell id="kD788OwM7WemHHMl1Btq-46" style="edgeStyle=none;shape=connector;rounded=0;orthogonalLoop=1;jettySize=auto;html=1;entryX=0.5;entryY=0;entryDx=0;entryDy=0;strokeColor=default;align=center;verticalAlign=middle;fontFamily=Helvetica;fontSize=11;fontColor=default;labelBackgroundColor=default;endArrow=none;endFill=0;" edge="1" parent="1" source="kD788OwM7WemHHMl1Btq-29" target="kD788OwM7WemHHMl1Btq-25">
          <mxGeometry relative="1" as="geometry" />
        </mxCell>
        <mxCell id="kD788OwM7WemHHMl1Btq-29" value="mangas" style="whiteSpace=wrap;html=1;align=center;fontFamily=Helvetica;fontSize=11;fontColor=default;labelBackgroundColor=default;" vertex="1" parent="1">
          <mxGeometry x="480" y="610" width="100" height="40" as="geometry" />
        </mxCell>
        <mxCell id="kD788OwM7WemHHMl1Btq-47" style="edgeStyle=none;shape=connector;rounded=0;orthogonalLoop=1;jettySize=auto;html=1;entryX=0;entryY=0;entryDx=0;entryDy=0;strokeColor=default;align=center;verticalAlign=middle;fontFamily=Helvetica;fontSize=11;fontColor=default;labelBackgroundColor=default;endArrow=none;endFill=0;" edge="1" parent="1" source="kD788OwM7WemHHMl1Btq-30" target="kD788OwM7WemHHMl1Btq-28">
          <mxGeometry relative="1" as="geometry" />
        </mxCell>
        <mxCell id="kD788OwM7WemHHMl1Btq-30" value="nº episodios" style="ellipse;whiteSpace=wrap;html=1;align=center;fontFamily=Helvetica;fontSize=11;fontColor=default;labelBackgroundColor=default;" vertex="1" parent="1">
          <mxGeometry x="180" y="550" width="100" height="40" as="geometry" />
        </mxCell>
        <mxCell id="kD788OwM7WemHHMl1Btq-48" style="edgeStyle=none;shape=connector;rounded=0;orthogonalLoop=1;jettySize=auto;html=1;entryX=0;entryY=0.25;entryDx=0;entryDy=0;strokeColor=default;align=center;verticalAlign=middle;fontFamily=Helvetica;fontSize=11;fontColor=default;labelBackgroundColor=default;endArrow=none;endFill=0;" edge="1" parent="1" source="kD788OwM7WemHHMl1Btq-31" target="kD788OwM7WemHHMl1Btq-28">
          <mxGeometry relative="1" as="geometry" />
        </mxCell>
        <mxCell id="kD788OwM7WemHHMl1Btq-31" value="año emisión" style="ellipse;whiteSpace=wrap;html=1;align=center;fontFamily=Helvetica;fontSize=11;fontColor=default;labelBackgroundColor=default;" vertex="1" parent="1">
          <mxGeometry x="180" y="590" width="100" height="40" as="geometry" />
        </mxCell>
        <mxCell id="kD788OwM7WemHHMl1Btq-49" style="edgeStyle=none;shape=connector;rounded=0;orthogonalLoop=1;jettySize=auto;html=1;entryX=0;entryY=0.75;entryDx=0;entryDy=0;strokeColor=default;align=center;verticalAlign=middle;fontFamily=Helvetica;fontSize=11;fontColor=default;labelBackgroundColor=default;endArrow=none;endFill=0;" edge="1" parent="1" source="kD788OwM7WemHHMl1Btq-32" target="kD788OwM7WemHHMl1Btq-28">
          <mxGeometry relative="1" as="geometry" />
        </mxCell>
        <mxCell id="kD788OwM7WemHHMl1Btq-32" value="título" style="ellipse;whiteSpace=wrap;html=1;align=center;fontFamily=Helvetica;fontSize=11;fontColor=default;labelBackgroundColor=default;" vertex="1" parent="1">
          <mxGeometry x="180" y="630" width="100" height="40" as="geometry" />
        </mxCell>
        <mxCell id="kD788OwM7WemHHMl1Btq-50" style="edgeStyle=none;shape=connector;rounded=0;orthogonalLoop=1;jettySize=auto;html=1;entryX=0;entryY=1;entryDx=0;entryDy=0;strokeColor=default;align=center;verticalAlign=middle;fontFamily=Helvetica;fontSize=11;fontColor=default;labelBackgroundColor=default;endArrow=none;endFill=0;" edge="1" parent="1" source="kD788OwM7WemHHMl1Btq-33" target="kD788OwM7WemHHMl1Btq-28">
          <mxGeometry relative="1" as="geometry" />
        </mxCell>
        <mxCell id="kD788OwM7WemHHMl1Btq-33" value="autor" style="ellipse;whiteSpace=wrap;html=1;align=center;fontFamily=Helvetica;fontSize=11;fontColor=default;labelBackgroundColor=default;" vertex="1" parent="1">
          <mxGeometry x="180" y="670" width="100" height="40" as="geometry" />
        </mxCell>
        <mxCell id="kD788OwM7WemHHMl1Btq-51" style="edgeStyle=none;shape=connector;rounded=0;orthogonalLoop=1;jettySize=auto;html=1;entryX=1;entryY=0;entryDx=0;entryDy=0;strokeColor=default;align=center;verticalAlign=middle;fontFamily=Helvetica;fontSize=11;fontColor=default;labelBackgroundColor=default;endArrow=none;endFill=0;" edge="1" parent="1" source="kD788OwM7WemHHMl1Btq-34" target="kD788OwM7WemHHMl1Btq-29">
          <mxGeometry relative="1" as="geometry" />
        </mxCell>
        <mxCell id="kD788OwM7WemHHMl1Btq-34" value="nº episodios" style="ellipse;whiteSpace=wrap;html=1;align=center;fontFamily=Helvetica;fontSize=11;fontColor=default;labelBackgroundColor=default;" vertex="1" parent="1">
          <mxGeometry x="620" y="560" width="100" height="40" as="geometry" />
        </mxCell>
        <mxCell id="kD788OwM7WemHHMl1Btq-52" style="edgeStyle=none;shape=connector;rounded=0;orthogonalLoop=1;jettySize=auto;html=1;entryX=1;entryY=0.25;entryDx=0;entryDy=0;strokeColor=default;align=center;verticalAlign=middle;fontFamily=Helvetica;fontSize=11;fontColor=default;labelBackgroundColor=default;endArrow=none;endFill=0;" edge="1" parent="1" source="kD788OwM7WemHHMl1Btq-35" target="kD788OwM7WemHHMl1Btq-29">
          <mxGeometry relative="1" as="geometry" />
        </mxCell>
        <mxCell id="kD788OwM7WemHHMl1Btq-35" value="año emisión" style="ellipse;whiteSpace=wrap;html=1;align=center;fontFamily=Helvetica;fontSize=11;fontColor=default;labelBackgroundColor=default;" vertex="1" parent="1">
          <mxGeometry x="620" y="600" width="100" height="40" as="geometry" />
        </mxCell>
        <mxCell id="kD788OwM7WemHHMl1Btq-53" style="edgeStyle=none;shape=connector;rounded=0;orthogonalLoop=1;jettySize=auto;html=1;entryX=1;entryY=0.75;entryDx=0;entryDy=0;strokeColor=default;align=center;verticalAlign=middle;fontFamily=Helvetica;fontSize=11;fontColor=default;labelBackgroundColor=default;endArrow=none;endFill=0;" edge="1" parent="1" source="kD788OwM7WemHHMl1Btq-36" target="kD788OwM7WemHHMl1Btq-29">
          <mxGeometry relative="1" as="geometry" />
        </mxCell>
        <mxCell id="kD788OwM7WemHHMl1Btq-36" value="título" style="ellipse;whiteSpace=wrap;html=1;align=center;fontFamily=Helvetica;fontSize=11;fontColor=default;labelBackgroundColor=default;" vertex="1" parent="1">
          <mxGeometry x="620" y="640" width="100" height="40" as="geometry" />
        </mxCell>
        <mxCell id="kD788OwM7WemHHMl1Btq-54" style="edgeStyle=none;shape=connector;rounded=0;orthogonalLoop=1;jettySize=auto;html=1;entryX=1;entryY=1;entryDx=0;entryDy=0;strokeColor=default;align=center;verticalAlign=middle;fontFamily=Helvetica;fontSize=11;fontColor=default;labelBackgroundColor=default;endArrow=none;endFill=0;" edge="1" parent="1" source="kD788OwM7WemHHMl1Btq-37" target="kD788OwM7WemHHMl1Btq-29">
          <mxGeometry relative="1" as="geometry" />
        </mxCell>
        <mxCell id="kD788OwM7WemHHMl1Btq-37" value="autor" style="ellipse;whiteSpace=wrap;html=1;align=center;fontFamily=Helvetica;fontSize=11;fontColor=default;labelBackgroundColor=default;" vertex="1" parent="1">
          <mxGeometry x="620" y="680" width="100" height="40" as="geometry" />
        </mxCell>
      </root>
    </mxGraphModel>
  </diagram>
</mxfile>
